<svg viewBox="0 0 20 20" fill="none" xmlns="http://www.w3.org/2000/svg" width="20" height="20"><g id="SVGRepo_bgCarrier" stroke-width="0"/><g id="SVGRepo_tracerCarrier" stroke-linecap="round" stroke-linejoin="round"/><g id="SVGRepo_iconCarrier"><path d="M14.167 14.167h0.008m0.325 -2.5h0.5c0.777 0 1.165 0 1.471 0.127a1.667 1.667 0 0 1 0.902 0.902C17.5 13.002 17.5 13.39 17.5 14.167s0 1.165 -0.127 1.471a1.667 1.667 0 0 1 -0.902 0.902C16.165 16.667 15.777 16.667 15 16.667H5c-0.777 0 -1.165 0 -1.471 -0.127a1.667 1.667 0 0 1 -0.902 -0.902C2.5 15.332 2.5 14.943 2.5 14.167s0 -1.165 0.127 -1.471a1.667 1.667 0 0 1 0.902 -0.902C3.835 11.667 4.223 11.667 5 11.667h0.5m4.5 0.833V3.333m0 9.167 -2.5 -2.5m2.5 2.5 2.5 -2.5" stroke="#99a1af" stroke-width="1.6666666666666667" stroke-linecap="round" stroke-linejoin="round"/></g></svg>