<svg width="20px" height="20px" viewBox="0 0 7.5 7.5" fill="none" xmlns="http://www.w3.org/2000/svg"><g id="SVGRepo_bgCarrier" stroke-width="0"/><g id="SVGRepo_tracerCarrier" stroke-linecap="round" stroke-linejoin="round"/><g id="SVGRepo_iconCarrier"><path d="M3.787 3.994a0.313 0.313 0 0 0 -0.075 0 1.022 1.022 0 0 1 -0.988 -1.022c0 -0.566 0.456 -1.025 1.025 -1.025a1.024 1.024 0 0 1 0.037 2.047" stroke="#292D32" stroke-width="0.46875" stroke-linecap="round" stroke-linejoin="round"/><path d="M5.856 6.056A3.103 3.103 0 0 1 3.75 6.875c-0.813 0 -1.55 -0.309 -2.106 -0.819 0.031 -0.294 0.219 -0.581 0.553 -0.806 0.856 -0.569 2.256 -0.569 3.106 0 0.334 0.225 0.522 0.512 0.553 0.806" stroke="#292D32" stroke-width="0.46875" stroke-linecap="round" stroke-linejoin="round"/><path d="M3.75 6.875c1.726 0 3.125 -1.399 3.125 -3.125S5.476 0.625 3.75 0.625 0.625 2.024 0.625 3.75s1.399 3.125 3.125 3.125" stroke="#292D32" stroke-width="0.46875" stroke-linecap="round" stroke-linejoin="round"/></g></svg>