<svg fill="#000000" viewBox="0 0 16 16" version="1.1" xmlns="http://www.w3.org/2000/svg" width="16" height="16">
  <g id="SVGRepo_bgCarrier" stroke-width="0"/>
  <g id="SVGRepo_tracerCarrier" stroke-linecap="round" stroke-linejoin="round"/>
  <g id="SVGRepo_iconCarrier">
    <title>projects</title>
    <path d="M6 0.625H2A1.377 1.377 0 0 0 0.625 2v4A1.377 1.377 0 0 0 2 7.375h4A1.377 1.377 0 0 0 7.375 6V2A1.377 1.377 0 0 0 6 0.625M6.625 6A0.625 0.625 0 0 1 6 6.625H2A0.625 0.625 0 0 1 1.375 6V2c0.001 -0.345 0.28 -0.625 0.625 -0.625h4c0.345 0.001 0.625 0.28 0.625 0.625zM6 8.625H2A1.377 1.377 0 0 0 0.625 10v4A1.377 1.377 0 0 0 2 15.375h4A1.377 1.377 0 0 0 7.375 14v-4A1.377 1.377 0 0 0 6 8.625M6.625 14A0.625 0.625 0 0 1 6 14.625H2A0.625 0.625 0 0 1 1.375 14v-4c0.001 -0.345 0.28 -0.625 0.625 -0.625h4c0.345 0.001 0.625 0.28 0.625 0.625zM14 0.625h-4A1.377 1.377 0 0 0 8.625 2v4A1.377 1.377 0 0 0 10 7.375h4A1.377 1.377 0 0 0 15.375 6V2A1.377 1.377 0 0 0 14 0.625M14.625 6A0.625 0.625 0 0 1 14 6.625h-4A0.625 0.625 0 0 1 9.375 6V2c0.001 -0.345 0.28 -0.625 0.625 -0.625h4c0.345 0.001 0.625 0.28 0.625 0.625zM14 8.625h-4A1.377 1.377 0 0 0 8.625 10v4A1.377 1.377 0 0 0 10 15.375h4A1.377 1.377 0 0 0 15.375 14v-4A1.377 1.377 0 0 0 14 8.625M14.625 14A0.625 0.625 0 0 1 14 14.625h-4A0.625 0.625 0 0 1 9.375 14v-4c0.001 -0.345 0.28 -0.625 0.625 -0.625h4c0.345 0.001 0.625 0.28 0.625 0.625z" fill="#007AFF"/>
  </g>
</svg>
