<svg viewBox="0 0 16 16" fill="none" xmlns="http://www.w3.org/2000/svg" width="16" height="16"><g id="SVGRepo_bgCarrier" stroke-width="0"/><g id="SVGRepo_tracerCarrier" stroke-linecap="round" stroke-linejoin="round"/><g id="SVGRepo_iconCarrier"><path d="M12.667 6v5.867c0 0.747 0 1.12 -0.145 1.405a1.333 1.333 0 0 1 -0.583 0.583C11.653 14 11.28 14 10.533 14H5.467c-0.747 0 -1.12 0 -1.405 -0.145a1.333 1.333 0 0 1 -0.583 -0.583C3.333 12.987 3.333 12.613 3.333 11.867V4.133c0 -0.747 0 -1.12 0.145 -1.405a1.333 1.333 0 0 1 0.583 -0.583C4.347 2 4.72 2 5.467 2H8.667m4 4 -4 -4m4 4h-3.333a0.667 0.667 0 0 1 -0.667 -0.667V2" stroke="#007AFF" stroke-width="1.3333333333333333" stroke-linecap="round" stroke-linejoin="round"/></g></svg>