<svg fill="#007AFF" height="16px" width="16px" version="1.1" id="Layer_1" xmlns="http://www.w3.org/2000/svg" xmlns:xlink="http://www.w3.org/1999/xlink" viewBox="0 0 18.615 18.615" xml:space="preserve"><g id="SVGRepo_bgCarrier" stroke-width="0"/><g id="SVGRepo_tracerCarrier" stroke-linecap="round" stroke-linejoin="round"/><g id="SVGRepo_iconCarrier"><g id="XMLID_350_"><g id="XMLID_351_"><path id="XMLID_352_" d="M7.815 4.908h9.6c0.663 0 1.2 -0.537 1.2 -1.2s-0.537 -1.2 -1.2 -1.2h-9.6c-0.663 0 -1.2 0.537 -1.2 1.2s0.537 1.2 1.2 1.2"/></g><g id="XMLID_439_"><path id="XMLID_440_" d="M17.415 8.108h-9.6c-0.663 0 -1.2 0.537 -1.2 1.2s0.537 1.2 1.2 1.2h9.6c0.663 0 1.2 -0.537 1.2 -1.2s-0.537 -1.2 -1.2 -1.2"/></g><g id="XMLID_441_"><path id="XMLID_443_" d="M17.415 13.708h-9.6c-0.663 0 -1.2 0.537 -1.2 1.2s0.537 1.2 1.2 1.2h9.6c0.663 0 1.2 -0.537 1.2 -1.2s-0.537 -1.2 -1.2 -1.2"/></g><g id="XMLID_444_"><path id="XMLID_445_" d="m3.903 8.353 -0.799 -0.116 -0.357 -0.724a0.6 0.6 0 0 0 -1.076 0l-0.357 0.724 -0.799 0.116A0.6 0.6 0 0 0 0.181 9.376l0.578 0.564 -0.137 0.796a0.6 0.6 0 0 0 0.87 0.633l0.715 -0.376 0.715 0.376a0.6 0.6 0 0 0 0.279 0.069h0.002a0.6 0.6 0 0 0 0.582 -0.746l-0.129 -0.751 0.578 -0.564a0.6 0.6 0 0 0 -0.332 -1.023"/></g><g id="XMLID_446_"><path id="XMLID_447_" d="m3.903 2.753 -0.799 -0.116 -0.357 -0.724a0.6 0.6 0 0 0 -1.076 0l-0.357 0.724 -0.799 0.116A0.6 0.6 0 0 0 0.181 3.776l0.578 0.564 -0.137 0.796a0.6 0.6 0 0 0 0.87 0.633l0.715 -0.376 0.715 0.376a0.6 0.6 0 0 0 0.279 0.069h0.002a0.6 0.6 0 0 0 0.6 -0.6 0.6 0.6 0 0 0 -0.018 -0.146l-0.129 -0.751 0.578 -0.564a0.6 0.6 0 0 0 -0.332 -1.023"/></g><g id="XMLID_448_"><path id="XMLID_449_" d="m3.903 13.953 -0.799 -0.116 -0.357 -0.724a0.6 0.6 0 0 0 -1.076 0l-0.357 0.724 -0.799 0.116A0.6 0.6 0 0 0 0.181 14.976l0.578 0.564 -0.137 0.796a0.6 0.6 0 0 0 0.87 0.633l0.715 -0.376 0.715 0.376a0.6 0.6 0 0 0 0.279 0.069h0.002a0.6 0.6 0 0 0 0.582 -0.746l-0.129 -0.751 0.578 -0.564a0.6 0.6 0 0 0 -0.332 -1.023"/></g></g></g></svg>