<svg viewBox="0 0 16 16" fill="none" xmlns="http://www.w3.org/2000/svg" width="16" height="16"><g id="SVGRepo_bgCarrier" stroke-width="0"/><g id="SVGRepo_tracerCarrier" stroke-linecap="round" stroke-linejoin="round"/><g id="SVGRepo_iconCarrier"><path d="M2.667 4h10.667m-2.667 0 -0.18 -0.541c-0.175 -0.525 -0.263 -0.787 -0.425 -0.981a1.333 1.333 0 0 0 -0.535 -0.385C9.293 2 9.016 2 8.463 2h-0.925c-0.553 0 -0.829 0 -1.064 0.093a1.333 1.333 0 0 0 -0.535 0.385c-0.162 0.193 -0.249 0.456 -0.424 0.981L5.333 4m6.667 0v6.8c0 1.12 0 1.68 -0.218 2.108a2 2 0 0 1 -0.874 0.874C10.48 14 9.92 14 8.8 14h-1.6c-1.12 0 -1.68 0 -2.108 -0.218a2 2 0 0 1 -0.874 -0.874C4 12.48 4 11.92 4 10.8V4m5.333 2.667v4.667m-2.667 -4.667v4.667" stroke="#007AFF" stroke-width="1.3333333333333333" stroke-linecap="round" stroke-linejoin="round"/></g></svg>